<?xml version="1.0"?>
<svg version="1.1" xmlns="http://www.w3.org/2000/svg" width="400" height="200" style=""><path fill="#87054d" d="M15,92.79150390625q0-0.2529296875,0.352294921875-0.388427734375t0.460693359375-0.135498046875l0.66845703125-0.1083984375q0.66845703125-0.1083984375,1.35498046875-0.189697265625t1.3369140625-0.153564453125q2.29443359375-0.2890625,4.5888671875-0.569091796875t4.625-0.280029296875q0.1806640625,0,0.496826171875,0.01806640625t0.63232421875,0.099365234375t0.5419921875,0.225830078125t0.225830078125,0.3974609375q0,0.1806640625-0.171630859375,0.316162109375t-0.406494140625,0.207763671875t-0.478759765625,0.09033203125t-0.388427734375,0.01806640625l-0.316162109375,0t-0.316162109375-0.072265625q-0.95751953125,0-1.887939453125,0.09033203125t-1.887939453125,0.16259765625q0.2529296875,0.2890625,0.27099609375,0.81298828125t0.0361328125,0.9033203125q0,6.3955078125,0.09033203125,12.71875t0.16259765625,12.77294921875l0,0.0361328125q-0.59619140625,0.52392578125-1.020751953125,0.66845703125t-0.858154296875,0.14453125q-0.41552734375,0-0.840087890625-0.153564453125t-1.020751953125-0.659423828125l0-0.0361328125l0.14453125-14.18212890625q0-1.4091796875-0.0361328125-3.107421875t-0.0361328125-3.441650390625t0.05419921875-3.369384765625t0.2890625-2.83642578125q-1.06591796875,0.1083984375-2.25830078125,0.3251953125q-1.02978515625,0.1806640625-1.96923828125,0.1806640625l-0.3251953125,0q-0.072265625,0-0.424560546875,0.01806640625t-0.72265625-0.01806640625t-0.66845703125-0.14453125t-0.298095703125-0.361328125z M32.753315429688,118.08447265625q0-0.1083984375,0.072265625-0.767822265625t0.189697265625-1.60791015625t0.261962890625-2.04150390625t0.2529296875-2.068603515625t0.189697265625-1.71630859375t0.081298828125-0.99365234375q-0.14453125-0.072265625-0.352294921875-0.207763671875t-0.207763671875-0.316162109375q0-0.2529296875,0.243896484375-0.406494140625t0.424560546875-0.225830078125q0.072265625-0.92138671875,0.1806640625-2.5654296875t0.334228515625-3.550048828125t0.63232421875-3.8662109375t1.074951171875-3.55908203125t1.60791015625-2.610595703125t2.3125-1.01171875t2.2763671875,0.8671875t1.472412109375,2.25830078125t0.8671875,3.08935546875t0.45166015625,3.37841796875t0.189697265625,3.1435546875t0.072265625,2.3486328125q0.0361328125,0.56005859375,0.27099609375,0.749755859375t0.514892578125,0.261962890625t0.505859375,0.16259765625t0.225830078125,0.45166015625q0,0.41552734375-0.505859375,0.578125t-0.794921875,0.19873046875q0.1806640625,2.25830078125,0.496826171875,4.4443359375t0.840087890625,4.408203125q0.072265625,0.41552734375,0.19873046875,0.840087890625t0.12646484375,0.822021484375q0,0.2890625-0.19873046875,0.478759765625t-0.514892578125,0.298095703125t-0.63232421875,0.14453125t-0.532958984375,0.0361328125q-0.81298828125,0-1.373046875-0.30712890625t-0.74072265625-1.17431640625q-0.48779296875-2.33056640625-0.95751953125-4.89599609375q-0.3974609375-2.22216796875-0.3974609375-4.31787109375q0-0.3251953125,0.01806640625-0.650390625q-1.517578125,0-3.05322265625,0.072265625t-2.94482421875,0.5419921875q-0.0361328125,0.48779296875-0.1806640625,1.8427734375t-0.3251953125,2.90869140625t-0.370361328125,2.971923828125t-0.225830078125,2.014404296875q-0.0361328125,0.2529296875-0.370361328125,0.478759765625t-0.72265625,0.243896484375t-0.6865234375-0.243896484375t-0.298095703125-0.930419921875z M36.131733398438,107.13623046875q1.4091796875-0.3251953125,2.827392578125-0.37939453125t2.863525390625-0.12646484375q-0.072265625-0.45166015625-0.0361328125-0.930419921875t0.0361328125-0.966552734375q0-1.06591796875-0.05419921875-2.47509765625t-0.16259765625-2.8544921875t-0.280029296875-2.845458984375t-0.388427734375-2.4931640625t-0.460693359375-1.743408203125t-0.532958984375-0.650390625q-0.56005859375,0.0361328125-1.056884765625,0.966552734375t-0.9033203125,2.36669921875t-0.74072265625,3.2158203125t-0.56005859375,3.477783203125t-0.370361328125,3.16162109375t-0.1806640625,2.2763671875z M49.856240234375,92.79150390625q0-0.2529296875,0.352294921875-0.388427734375t0.460693359375-0.135498046875l0.66845703125-0.1083984375q0.66845703125-0.1083984375,1.35498046875-0.189697265625t1.3369140625-0.153564453125q2.29443359375-0.2890625,4.5888671875-0.569091796875t4.625-0.280029296875q0.1806640625,0,0.496826171875,0.01806640625t0.63232421875,0.099365234375t0.5419921875,0.225830078125t0.225830078125,0.3974609375q0,0.1806640625-0.171630859375,0.316162109375t-0.406494140625,0.207763671875t-0.478759765625,0.09033203125t-0.388427734375,0.01806640625l-0.316162109375,0t-0.316162109375-0.072265625q-0.95751953125,0-1.887939453125,0.09033203125t-1.887939453125,0.16259765625q0.2529296875,0.2890625,0.27099609375,0.81298828125t0.0361328125,0.9033203125q0,6.3955078125,0.09033203125,12.71875t0.16259765625,12.77294921875l0,0.0361328125q-0.59619140625,0.52392578125-1.020751953125,0.66845703125t-0.858154296875,0.14453125q-0.41552734375,0-0.840087890625-0.153564453125t-1.020751953125-0.659423828125l0-0.0361328125l0.14453125-14.18212890625q0-1.4091796875-0.0361328125-3.107421875t-0.0361328125-3.441650390625t0.05419921875-3.369384765625t0.2890625-2.83642578125q-1.06591796875,0.1083984375-2.25830078125,0.3251953125q-1.02978515625,0.1806640625-1.96923828125,0.1806640625l-0.3251953125,0q-0.072265625,0-0.424560546875,0.01806640625t-0.72265625-0.01806640625t-0.66845703125-0.14453125t-0.298095703125-0.361328125z M67.609555664062,118.08447265625q0-0.1083984375,0.072265625-0.767822265625t0.189697265625-1.60791015625t0.261962890625-2.04150390625t0.2529296875-2.068603515625t0.189697265625-1.71630859375t0.081298828125-0.99365234375q-0.14453125-0.072265625-0.352294921875-0.207763671875t-0.207763671875-0.316162109375q0-0.2529296875,0.243896484375-0.406494140625t0.424560546875-0.225830078125q0.072265625-0.92138671875,0.1806640625-2.5654296875t0.334228515625-3.550048828125t0.63232421875-3.8662109375t1.074951171875-3.55908203125t1.60791015625-2.610595703125t2.3125-1.01171875t2.2763671875,0.8671875t1.472412109375,2.25830078125t0.8671875,3.08935546875t0.45166015625,3.37841796875t0.189697265625,3.1435546875t0.072265625,2.3486328125q0.0361328125,0.56005859375,0.27099609375,0.749755859375t0.514892578125,0.261962890625t0.505859375,0.16259765625t0.225830078125,0.45166015625q0,0.41552734375-0.505859375,0.578125t-0.794921875,0.19873046875q0.1806640625,2.25830078125,0.496826171875,4.4443359375t0.840087890625,4.408203125q0.072265625,0.41552734375,0.19873046875,0.840087890625t0.12646484375,0.822021484375q0,0.2890625-0.19873046875,0.478759765625t-0.514892578125,0.298095703125t-0.63232421875,0.14453125t-0.532958984375,0.0361328125q-0.81298828125,0-1.373046875-0.30712890625t-0.74072265625-1.17431640625q-0.48779296875-2.33056640625-0.95751953125-4.89599609375q-0.3974609375-2.22216796875-0.3974609375-4.31787109375q0-0.3251953125,0.01806640625-0.650390625q-1.517578125,0-3.05322265625,0.072265625t-2.94482421875,0.5419921875q-0.0361328125,0.48779296875-0.1806640625,1.8427734375t-0.3251953125,2.90869140625t-0.370361328125,2.971923828125t-0.225830078125,2.014404296875q-0.0361328125,0.2529296875-0.370361328125,0.478759765625t-0.72265625,0.243896484375t-0.6865234375-0.243896484375t-0.298095703125-0.930419921875z M70.987973632812,107.13623046875q1.4091796875-0.3251953125,2.827392578125-0.37939453125t2.863525390625-0.12646484375q-0.072265625-0.45166015625-0.0361328125-0.930419921875t0.0361328125-0.966552734375q0-1.06591796875-0.05419921875-2.47509765625t-0.16259765625-2.8544921875t-0.280029296875-2.845458984375t-0.388427734375-2.4931640625t-0.460693359375-1.743408203125t-0.532958984375-0.650390625q-0.56005859375,0.0361328125-1.056884765625,0.966552734375t-0.9033203125,2.36669921875t-0.74072265625,3.2158203125t-0.56005859375,3.477783203125t-0.370361328125,3.16162109375t-0.1806640625,2.2763671875z M85.81453125,93.7490234375q0-0.84912109375,0.207763671875-1.237548828125t0.59619140625-0.5419921875t0.939453125-0.117431640625t1.291748046875,0.0361328125q1.87890625,0,3.7939453125,0.578125t3.45068359375,1.689208984375t2.47509765625,2.737060546875t0.939453125,3.73974609375q0,1.4091796875-0.406494140625,2.664794921875t-1.147216796875,2.3486328125t-1.734375,1.996337890625t-2.18603515625,1.57177734375q0.48779296875,0.48779296875,1.2646484375,1.725341796875t1.53564453125,2.6376953125t1.345947265625,2.718994140625t0.695556640625,1.9873046875l-0.216796875,0.3251953125q-0.48779296875,0.2890625-1.17431640625,0.30712890625q-0.3251953125,0-0.84912109375-0.081298828125t-0.66845703125-0.478759765625q-0.74072265625-2.07763671875-1.616943359375-4.28173828125t-2.158935546875-3.974609375l0-0.0361328125q-0.45166015625,0.1806640625-0.894287109375,0.352294921875t-0.894287109375,0.316162109375q0.14453125,2.00537109375,0.298095703125,3.947509765625t0.153564453125,3.929443359375q0,0.2529296875-0.243896484375,0.406494140625t-0.551025390625,0.243896484375t-0.623291015625,0.12646484375t-0.514892578125,0.0361328125q-0.1806640625,0-0.514892578125-0.0361328125t-0.641357421875-0.12646484375t-0.532958984375-0.261962890625t-0.225830078125-0.460693359375q0-2.00537109375-0.09033203125-4.001708984375t-0.19873046875-3.983642578125q-0.56005859375-0.361328125-0.56005859375-0.939453125q0-0.45166015625,0.43359375-0.6142578125q-0.216796875-3.81201171875-0.496826171875-7.60595703125t-0.280029296875-7.64208984375z M89.08455078125,93.18896484375q0.2529296875,3.92041015625,0.569091796875,7.75048828125t0.605224609375,7.75048828125q1.2646484375-0.361328125,2.357666015625-1.255615234375t1.887939453125-2.014404296875t1.237548828125-2.43896484375t0.442626953125-2.61962890625q0-1.4453125-0.578125-2.773193359375t-1.53564453125-2.321533203125q-0.9755859375-0.99365234375-2.240234375-1.5537109375q-1.1201171875-0.48779296875-2.3486328125-0.48779296875l-0.3251953125,0z"/><path fill="#" d=""/></svg>
